0, 0, Header, 0, 1, 96
1, 0, Start_track
1, 0, Title_t, "4 59-MIDI\000"
1, 0, Time_signature, 4, 2, 36, 8
1, 0, Time_signature, 4, 2, 36, 8
1, 1536, Note_on_c, 0, 40, 126
1, 1584, Note_off_c, 0, 40, 64
1, 1728, Note_on_c, 0, 40, 126
1, 1776, Note_off_c, 0, 40, 64
1, 1824, Note_on_c, 0, 40, 126
1, 1872, Note_off_c, 0, 40, 64
1, 1920, Note_on_c, 0, 36, 126
1, 1968, Note_off_c, 0, 36, 64
1, 2112, Note_on_c, 0, 36, 126
1, 2160, Note_off_c, 0, 36, 64
1, 2208, Note_on_c, 0, 36, 126
1, 2256, Note_off_c, 0, 36, 64
1, 2304, Note_on_c, 0, 40, 119
1, 2352, Note_off_c, 0, 40, 64
1, 2496, Note_on_c, 0, 40, 119
1, 2544, Note_off_c, 0, 40, 64
1, 2688, Note_on_c, 0, 36, 119
1, 2736, Note_off_c, 0, 36, 64
1, 2784, Note_on_c, 0, 36, 119
1, 2832, Note_off_c, 0, 36, 64
1, 2880, Note_on_c, 0, 40, 119
1, 2928, Note_off_c, 0, 40, 64
1, 2976, Note_on_c, 0, 44, 126
1, 3024, Note_off_c, 0, 44, 64
1, 3024, Note_on_c, 0, 44, 126
1, 3072, Note_off_c, 0, 44, 64
1, 3072, Note_on_c, 0, 44, 100
1, 3120, Note_on_c, 0, 40, 100
1, 3120, Note_off_c, 0, 44, 64
1, 3168, Note_off_c, 0, 40, 64
1, 3168, Note_on_c, 0, 44, 100
1, 3216, Note_off_c, 0, 44, 64
1, 3312, Note_on_c, 0, 44, 126
1, 3360, Note_off_c, 0, 44, 64
1, 3360, Note_on_c, 0, 48, 126
1, 3408, Note_off_c, 0, 48, 64
1, 3456, Note_on_c, 0, 48, 126
1, 3504, Note_off_c, 0, 48, 64
1, 3600, Note_on_c, 0, 44, 126
1, 3648, Note_off_c, 0, 44, 64
1, 3648, Note_on_c, 0, 44, 126
1, 3696, Note_off_c, 0, 44, 64
1, 3744, Note_on_c, 0, 44, 116
1, 3792, Note_off_c, 0, 44, 64
1, 3840, Note_on_c, 0, 44, 100
1, 3888, Note_off_c, 0, 44, 64
1, 3936, Note_on_c, 0, 48, 119
1, 3984, Note_off_c, 0, 48, 64
1, 4032, Note_on_c, 0, 44, 119
1, 4080, Note_off_c, 0, 44, 64
1, 4128, Note_on_c, 0, 40, 119
1, 4176, Note_off_c, 0, 40, 64
1, 4224, Note_on_c, 0, 36, 126
1, 4272, Note_off_c, 0, 36, 64
1, 4272, Note_on_c, 0, 36, 126
1, 4320, Note_on_c, 0, 40, 126
1, 4323, Note_off_c, 0, 36, 64
1, 4368, Note_off_c, 0, 40, 64
1, 4368, Note_on_c, 0, 40, 126
1, 4416, Note_off_c, 0, 40, 64
1, 4416, Note_on_c, 0, 44, 126
1, 4464, Note_off_c, 0, 44, 64
1, 4464, Note_on_c, 0, 44, 100
1, 4512, Note_off_c, 0, 44, 64
1, 4512, Note_on_c, 0, 48, 126
1, 4560, Note_off_c, 0, 48, 64
1, 4560, Note_on_c, 0, 48, 100
1, 4608, Note_off_c, 0, 48, 64
1, 4608, Note_on_c, 0, 49, 120
1, 4992, Note_on_c, 0, 48, 100
1, 4992, Note_off_c, 0, 49, 64
1, 5040, Note_off_c, 0, 48, 64
1, 5136, Note_on_c, 0, 48, 100
1, 5184, Note_off_c, 0, 48, 64
1, 5280, Note_on_c, 0, 48, 100
1, 5328, Note_off_c, 0, 48, 64
1, 5376, Note_on_c, 0, 45, 120
1, 5760, Note_on_c, 0, 44, 120
1, 5760, Note_off_c, 0, 45, 64
1, 5808, Note_off_c, 0, 44, 64
1, 5856, Note_on_c, 0, 44, 120
1, 5904, Note_off_c, 0, 44, 64
1, 5952, Note_on_c, 0, 44, 120
1, 6000, Note_off_c, 0, 44, 64
1, 6048, Note_on_c, 0, 44, 120
1, 6096, Note_off_c, 0, 44, 64
1, 6144, Note_on_c, 0, 40, 120
1, 6192, Note_off_c, 0, 40, 64
1, 6240, Note_on_c, 0, 41, 120
1, 6432, Note_on_c, 0, 40, 120
1, 6432, Note_off_c, 0, 41, 64
1, 6480, Note_off_c, 0, 40, 64
1, 6528, Note_on_c, 0, 40, 100
1, 6576, Note_off_c, 0, 40, 64
1, 6624, Note_on_c, 0, 41, 120
1, 6816, Note_off_c, 0, 41, 64
1, 6816, Note_on_c, 0, 44, 100
1, 6864, Note_off_c, 0, 44, 64
1, 6864, Note_on_c, 0, 44, 100
1, 6912, Note_off_c, 0, 44, 64
1, 6912, Note_on_c, 0, 49, 120
1, 7008, Note_on_c, 0, 44, 100
1, 7008, Note_off_c, 0, 49, 64
1, 7056, Note_off_c, 0, 44, 64
1, 7056, Note_on_c, 0, 44, 100
1, 7104, Note_off_c, 0, 44, 64
1, 7104, Note_on_c, 0, 49, 120
1, 7200, Note_on_c, 0, 44, 100
1, 7200, Note_off_c, 0, 49, 64
1, 7248, Note_off_c, 0, 44, 64
1, 7248, Note_on_c, 0, 44, 100
1, 7296, Note_off_c, 0, 44, 64
1, 7296, Note_on_c, 0, 49, 100
1, 7392, Note_on_c, 0, 45, 100
1, 7392, Note_off_c, 0, 49, 64
1, 7488, Note_on_c, 0, 41, 100
1, 7488, Note_off_c, 0, 45, 64
1, 7584, Note_on_c, 0, 37, 100
1, 7584, Note_off_c, 0, 41, 64
1, 7680, Note_off_c, 0, 37, 64
1, 7680, Note_on_c, 0, 37, 120
1, 7776, Note_on_c, 0, 36, 100
1, 7776, Note_off_c, 0, 37, 64
1, 7824, Note_off_c, 0, 36, 64
1, 7872, Note_on_c, 0, 37, 100
1, 7968, Note_on_c, 0, 36, 100
1, 7968, Note_off_c, 0, 37, 64
1, 8016, Note_off_c, 0, 36, 64
1, 8064, Note_on_c, 0, 37, 100
1, 8160, Note_on_c, 0, 36, 100
1, 8160, Note_off_c, 0, 37, 64
1, 8208, Note_off_c, 0, 36, 64
1, 8256, Note_on_c, 0, 37, 100
1, 8352, Note_on_c, 0, 36, 100
1, 8352, Note_off_c, 0, 37, 64
1, 8400, Note_off_c, 0, 36, 64
1, 8400, Note_on_c, 0, 40, 100
1, 8448, Note_off_c, 0, 40, 64
1, 8448, Note_on_c, 0, 41, 126
1, 8640, Note_off_c, 0, 41, 64
1, 8832, Note_on_c, 0, 41, 100
1, 9024, Note_off_c, 0, 41, 64
1, 9216, Note_on_c, 0, 40, 126
1, 9264, Note_off_c, 0, 40, 64
1, 9312, Note_on_c, 0, 40, 100
1, 9336, Note_off_c, 0, 40, 64
1, 9336, Note_on_c, 0, 40, 100
1, 9360, Note_off_c, 0, 40, 64
1, 9360, Note_on_c, 0, 40, 100
1, 9384, Note_off_c, 0, 40, 64
1, 9384, Note_on_c, 0, 40, 100
1, 9408, Note_off_c, 0, 40, 64
1, 9408, Note_on_c, 0, 40, 126
1, 9456, Note_off_c, 0, 40, 64
1, 9504, Note_on_c, 0, 40, 126
1, 9552, Note_off_c, 0, 40, 64
1, 9600, Note_on_c, 0, 37, 126
1, 9696, Note_on_c, 0, 36, 100
1, 9696, Note_off_c, 0, 37, 64
1, 9720, Note_off_c, 0, 36, 64
1, 9792, Note_on_c, 0, 36, 126
1, 9840, Note_off_c, 0, 36, 64
1, 9888, Note_on_c, 0, 36, 126
1, 9936, Note_off_c, 0, 36, 64
1, 9984, Note_on_c, 0, 40, 119
1, 10080, Note_off_c, 0, 40, 64
1, 10080, Note_on_c, 0, 41, 119
1, 10128, Note_off_c, 0, 41, 64
1, 10221, Note_on_c, 0, 36, 100
1, 10269, Note_off_c, 0, 36, 64
1, 10272, Note_on_c, 0, 41, 100
1, 10320, Note_off_c, 0, 41, 64
1, 10368, Note_on_c, 0, 36, 119
1, 10416, Note_off_c, 0, 36, 64
1, 10464, Note_on_c, 0, 36, 119
1, 10512, Note_off_c, 0, 36, 64
1, 10560, Note_on_c, 0, 40, 119
1, 10608, Note_off_c, 0, 40, 64
1, 10656, Note_on_c, 0, 44, 126
1, 10704, Note_off_c, 0, 44, 64
1, 10704, Note_on_c, 0, 44, 126
1, 10752, Note_off_c, 0, 44, 64
1, 10752, Note_on_c, 0, 44, 100
1, 10800, Note_on_c, 0, 40, 100
1, 10800, Note_off_c, 0, 44, 64
1, 10848, Note_off_c, 0, 40, 64
1, 10848, Note_on_c, 0, 41, 100
1, 10944, Note_off_c, 0, 41, 64
1, 10944, Note_on_c, 0, 44, 100
1, 10992, Note_on_c, 0, 40, 100
1, 10992, Note_off_c, 0, 44, 64
1, 11040, Note_off_c, 0, 40, 64
1, 11040, Note_on_c, 0, 41, 100
1, 11136, Note_off_c, 0, 41, 64
1, 11136, Note_on_c, 0, 44, 100
1, 11184, Note_on_c, 0, 40, 100
1, 11184, Note_off_c, 0, 44, 64
1, 11232, Note_off_c, 0, 40, 64
1, 11232, Note_on_c, 0, 41, 100
1, 11328, Note_off_c, 0, 41, 64
1, 11328, Note_on_c, 0, 44, 100
1, 11376, Note_on_c, 0, 37, 100
1, 11376, Note_off_c, 0, 44, 64
1, 11424, Note_off_c, 0, 37, 64
1, 11424, Note_on_c, 0, 41, 100
1, 11520, Note_off_c, 0, 41, 64
1, 11520, Note_on_c, 0, 44, 100
1, 11568, Note_off_c, 0, 44, 64
1, 11568, Note_on_c, 0, 45, 119
1, 11616, Note_on_c, 0, 44, 100
1, 11616, Note_off_c, 0, 45, 64
1, 11664, Note_off_c, 0, 44, 64
1, 11664, Note_on_c, 0, 45, 100
1, 11712, Note_on_c, 0, 44, 119
1, 11712, Note_off_c, 0, 45, 64
1, 11760, Note_off_c, 0, 44, 64
1, 11760, Note_on_c, 0, 44, 119
1, 11808, Note_on_c, 0, 40, 119
1, 11808, Note_off_c, 0, 44, 64
1, 11856, Note_on_c, 0, 36, 119
1, 11856, Note_off_c, 0, 40, 64
1, 11904, Note_off_c, 0, 36, 64
1, 11904, Note_on_c, 0, 36, 126
1, 11952, Note_off_c, 0, 36, 64
1, 11952, Note_on_c, 0, 36, 126
1, 12000, Note_on_c, 0, 40, 126
1, 12003, Note_off_c, 0, 36, 64
1, 12048, Note_off_c, 0, 40, 64
1, 12048, Note_on_c, 0, 40, 126
1, 12096, Note_off_c, 0, 40, 64
1, 12096, Note_on_c, 0, 44, 126
1, 12144, Note_off_c, 0, 44, 64
1, 12144, Note_on_c, 0, 44, 100
1, 12192, Note_off_c, 0, 44, 64
1, 12192, Note_on_c, 0, 48, 126
1, 12240, Note_off_c, 0, 48, 64
1, 12240, Note_on_c, 0, 48, 100
1, 12288, Note_off_c, 0, 48, 64
1, 12288, Note_on_c, 0, 49, 120
1, 12672, Note_on_c, 0, 48, 100
1, 12672, Note_off_c, 0, 49, 64
1, 12720, Note_off_c, 0, 48, 64
1, 12816, Note_on_c, 0, 48, 100
1, 12864, Note_off_c, 0, 48, 64
1, 12960, Note_on_c, 0, 48, 100
1, 13008, Note_off_c, 0, 48, 64
1, 13056, Note_on_c, 0, 45, 120
1, 13440, Note_on_c, 0, 44, 120
1, 13440, Note_off_c, 0, 45, 64
1, 13488, Note_off_c, 0, 44, 64
1, 13536, Note_on_c, 0, 44, 120
1, 13584, Note_off_c, 0, 44, 64
1, 13632, Note_on_c, 0, 44, 120
1, 13680, Note_off_c, 0, 44, 64
1, 13728, Note_on_c, 0, 44, 120
1, 13776, Note_off_c, 0, 44, 64
1, 13824, Note_on_c, 0, 40, 119
1, 13920, Note_off_c, 0, 40, 64
1, 13920, Note_on_c, 0, 41, 119
1, 13968, Note_off_c, 0, 41, 64
1, 14061, Note_on_c, 0, 36, 100
1, 14109, Note_off_c, 0, 36, 64
1, 14112, Note_on_c, 0, 41, 100
1, 14160, Note_off_c, 0, 41, 64
1, 14208, Note_on_c, 0, 36, 119
1, 14256, Note_off_c, 0, 36, 64
1, 14304, Note_on_c, 0, 36, 119
1, 14352, Note_off_c, 0, 36, 64
1, 14400, Note_on_c, 0, 40, 119
1, 14448, Note_off_c, 0, 40, 64
1, 14496, Note_on_c, 0, 44, 126
1, 14544, Note_off_c, 0, 44, 64
1, 14544, Note_on_c, 0, 44, 126
1, 14592, Note_off_c, 0, 44, 64
1, 14592, Note_on_c, 0, 44, 100
1, 14640, Note_on_c, 0, 40, 100
1, 14640, Note_off_c, 0, 44, 64
1, 14688, Note_off_c, 0, 40, 64
1, 14688, Note_on_c, 0, 41, 100
1, 14784, Note_off_c, 0, 41, 64
1, 14784, Note_on_c, 0, 44, 100
1, 14832, Note_on_c, 0, 40, 100
1, 14832, Note_off_c, 0, 44, 64
1, 14880, Note_off_c, 0, 40, 64
1, 14880, Note_on_c, 0, 41, 100
1, 14976, Note_off_c, 0, 41, 64
1, 14976, Note_on_c, 0, 44, 100
1, 15024, Note_on_c, 0, 40, 100
1, 15024, Note_off_c, 0, 44, 64
1, 15072, Note_off_c, 0, 40, 64
1, 15072, Note_on_c, 0, 41, 100
1, 15168, Note_off_c, 0, 41, 64
1, 15168, Note_on_c, 0, 44, 100
1, 15216, Note_on_c, 0, 37, 100
1, 15216, Note_off_c, 0, 44, 64
1, 15264, Note_off_c, 0, 37, 64
1, 15264, Note_on_c, 0, 41, 100
1, 15360, Note_off_c, 0, 41, 64
1, 15360, Note_on_c, 0, 44, 100
1, 15408, Note_off_c, 0, 44, 64
1, 15408, Note_on_c, 0, 45, 119
1, 15456, Note_on_c, 0, 44, 100
1, 15456, Note_off_c, 0, 45, 64
1, 15504, Note_off_c, 0, 44, 64
1, 15504, Note_on_c, 0, 45, 100
1, 15552, Note_on_c, 0, 44, 119
1, 15552, Note_off_c, 0, 45, 64
1, 15600, Note_off_c, 0, 44, 64
1, 15600, Note_on_c, 0, 44, 119
1, 15648, Note_on_c, 0, 40, 119
1, 15648, Note_off_c, 0, 44, 64
1, 15696, Note_on_c, 0, 36, 119
1, 15696, Note_off_c, 0, 40, 64
1, 15744, Note_off_c, 0, 36, 64
1, 15744, Note_on_c, 0, 36, 126
1, 15792, Note_off_c, 0, 36, 64
1, 15792, Note_on_c, 0, 36, 126
1, 15840, Note_on_c, 0, 40, 126
1, 15843, Note_off_c, 0, 36, 64
1, 15888, Note_off_c, 0, 40, 64
1, 15888, Note_on_c, 0, 40, 126
1, 15936, Note_off_c, 0, 40, 64
1, 15936, Note_on_c, 0, 44, 126
1, 15984, Note_off_c, 0, 44, 64
1, 15984, Note_on_c, 0, 44, 100
1, 16032, Note_off_c, 0, 44, 64
1, 16032, Note_on_c, 0, 48, 126
1, 16080, Note_off_c, 0, 48, 64
1, 16080, Note_on_c, 0, 48, 100
1, 16128, Note_off_c, 0, 48, 64
1, 16128, Note_on_c, 0, 48, 100
1, 16224, Note_on_c, 0, 44, 100
1, 16224, Note_off_c, 0, 48, 64
1, 16320, Note_on_c, 0, 40, 100
1, 16320, Note_off_c, 0, 44, 64
1, 16416, Note_off_c, 0, 40, 64
1, 16416, Note_on_c, 0, 44, 100
1, 16512, Note_on_c, 0, 41, 100
1, 16512, Note_off_c, 0, 44, 64
1, 16896, Note_on_c, 0, 40, 100
1, 16896, Note_off_c, 0, 41, 64
1, 16992, Note_off_c, 0, 40, 64
1, 16992, Note_on_c, 0, 44, 100
1, 17088, Note_off_c, 0, 44, 64
1, 17280, Note_on_c, 0, 48, 100
1, 17328, Note_off_c, 0, 48, 64
1, 17328, Note_on_c, 0, 48, 100
1, 17376, Note_on_c, 0, 44, 100
1, 17376, Note_off_c, 0, 48, 64
1, 17472, Note_off_c, 0, 44, 64
1, 17664, Note_on_c, 0, 44, 100
1, 17712, Note_off_c, 0, 44, 64
1, 17712, Note_on_c, 0, 44, 100
1, 17760, Note_off_c, 0, 44, 64
1, 17760, Note_on_c, 0, 44, 100
1, 17808, Note_off_c, 0, 44, 64
1, 17808, Note_on_c, 0, 44, 100
1, 17856, Note_on_c, 0, 40, 100
1, 17856, Note_off_c, 0, 44, 64
1, 17952, Note_off_c, 0, 40, 64
1, 18048, Note_on_c, 0, 40, 100
1, 18144, Note_off_c, 0, 40, 64
1, 18240, Note_on_c, 0, 36, 100
1, 18336, Note_off_c, 0, 36, 64
1, 18336, Note_on_c, 0, 36, 99
1, 18432, Note_off_c, 0, 36, 64
1, 18432, Note_on_c, 0, 36, 99
1, 18528, Note_off_c, 0, 36, 64
1, 18624, Note_on_c, 0, 37, 99
1, 18816, Note_off_c, 0, 37, 64
1, 18816, Note_on_c, 0, 40, 99
1, 18912, Note_off_c, 0, 40, 64
1, 19008, Note_on_c, 0, 41, 99
1, 19200, Note_off_c, 0, 41, 64
1, 19200, Note_on_c, 0, 44, 99
1, 19296, Note_off_c, 0, 44, 64
1, 19392, Note_on_c, 0, 45, 99
1, 19584, Note_off_c, 0, 45, 64
1, 19584, Note_on_c, 0, 49, 99
1, 19968, Note_off_c, 0, 49, 64
1, 19968, End_track
0, 0, End_of_file
